<svg xmlns="http://www.w3.org/2000/svg" viewBox="0 0 259.69 178.2"><defs><style>.cls-1{fill:none;stroke:#231f20;stroke-linecap:round;stroke-linejoin:round;stroke-width:8px;}</style></defs><g id="Layer_2" data-name="Layer 2"><g id="Layer_1-2" data-name="Layer 1"><path class="cls-1" d="M255.69,135.46V149a25.24,25.24,0,0,1-25.24,25.24H101.71A25.24,25.24,0,0,1,76.47,149v-13.5Z"/><rect class="cls-1" x="76.47" y="121.48" width="179.22" height="13.98"/><path class="cls-1" d="M72.66-13.56H95a0,0,0,0,1,0,0V165.66a0,0,0,0,1,0,0H72.66a25,25,0,0,1-25-25V11.44a25,25,0,0,1,25-25Z" transform="translate(69.39 -28.2) rotate(42.1)"/><path class="cls-1" d="M243.69,121.16c0,.11,0,.21,0,.32H88.86a28,28,0,0,1,25.59-23.24,34.87,34.87,0,0,0,13.91,7.29,35.56,35.56,0,0,0,8.18,1.15h.87c19.18,0,34.73-15.14,34.73-33.82a33,33,0,0,0-4.92-17.35,45.16,45.16,0,0,1,7.21-.58c23.33,0,42.62,17.75,45.73,40.79h.44C233.35,95.72,243.69,107.11,243.69,121.16Z"/></g></g></svg>