<svg xmlns="http://www.w3.org/2000/svg" viewBox="0 0 119.5 55.99"><defs><style>.cls-1{fill:#231f20;}</style></defs><g id="Layer_2" data-name="Layer 2"><g id="Layer_1-2" data-name="Layer 1"><path class="cls-1" d="M23.14,21.83A64.62,64.62,0,0,0,12,24.93q-2.7,4-5.92,9.49L4.54,37.15c-.27.49-.69,1.19-1.26,2.11-.62,1.07-1.28,1.61-2,1.61a1.2,1.2,0,0,1-.94-.44A1.19,1.19,0,0,1,0,39.58q0-.82,2.2-4.66c.8-1.38,2-3.35,3.63-5.89.63-1,1.12-1.77,1.49-2.4A24.67,24.67,0,0,0,4.1,27.77a2.91,2.91,0,0,1-1.17.33A1,1,0,0,1,2,27.57a1.31,1.31,0,0,1-.23-.76,1.49,1.49,0,0,1,.7-1.41,19.39,19.39,0,0,1,4.1-1.61,33.35,33.35,0,0,0,3.49-1.29q.62-.77,3.22-4.48,1.11-1.62,6.33-7.62a108,108,0,0,1,7.73-8.17C28.91.74,30.09,0,30.91,0a1.73,1.73,0,0,1,1.32.62,1.88,1.88,0,0,1,.47,1.23,9.68,9.68,0,0,1-.82,2.87q-1.41,3.6-2.7,7.7Q28.07,16.05,27.69,18a5.16,5.16,0,0,0,.7,0l1.4,0c1.14,0,1.7.43,1.7,1.29a2,2,0,0,1-.36,1.1,1.52,1.52,0,0,1-.84.66,4.25,4.25,0,0,1-1,.06,10.9,10.9,0,0,0-2.49.2,100.36,100.36,0,0,0-2.23,10.64,64.08,64.08,0,0,0-.76,7c0,1.4-.42,2.11-1.26,2.11a1.69,1.69,0,0,1-1.55-1,3.69,3.69,0,0,1-.42-1.9,56.11,56.11,0,0,1,1.44-10.9C22.55,24.82,22.91,23.06,23.14,21.83ZM24,18.66c.18-.56.63-2.08,1.35-4.54q.27-1,1.35-3.84t1.73-4.74a22.32,22.32,0,0,0-3.87,3.34A80.17,80.17,0,0,0,14.77,21q1.08-.27,4.65-1.32C20.11,19.52,21.62,19.17,24,18.66Z"/><path class="cls-1" d="M39.64,29.79c-1.74,2.06-3.13,3.58-4.16,4.58q-3.07,2.93-5.13,2.92a1.91,1.91,0,0,1-1.58-.73,2.39,2.39,0,0,1-.44-1.46q0-3.16,3.75-8.41c2.54-3.56,4.38-5.33,5.51-5.33a1.26,1.26,0,0,1,1.14,1.17,1.91,1.91,0,0,1-.34,1.13,25.16,25.16,0,0,1-1.92,2.15,30.36,30.36,0,0,0-3.07,3.75,7.12,7.12,0,0,0-1.61,3.34c0,.41.19.62.58.62q1.17,0,4.4-3.2,2-2,3.16-3.4c.16-.19.84-1.12,2-2.78,1.1-1.46,1.77-2.33,2-2.61a2.38,2.38,0,0,1,1.64-1,1.1,1.1,0,0,1,.85.41,1.22,1.22,0,0,1,.36.88,7.06,7.06,0,0,1-1.18,2.84q-1.39,2.43-2.57,4.54A47.27,47.27,0,0,0,40.25,35a15.69,15.69,0,0,0,3.43-2.67,16.56,16.56,0,0,0,3.22-3.92c.37-.78.76-1.17,1.15-1.17a.73.73,0,0,1,.82.82q0,1.54-2.64,4.62A28,28,0,0,1,38.44,39a94,94,0,0,1-4.66,9.82Q29.67,56,25.31,56a3.47,3.47,0,0,1-2.87-1.38,4.14,4.14,0,0,1-.85-2.67q0-4.56,6.42-9.34a56.54,56.54,0,0,1,5.56-3.52c1-.56,1.78-1,2.35-1.37.35-.9.89-2.09,1.61-3.58S39,31.08,39.64,29.79ZM34.25,41.31a30,30,0,0,0-6.36,4.51q-3.29,3-3.28,5.63a1.4,1.4,0,0,0,.32.93,1.43,1.43,0,0,0,1.14.53q2.2,0,4.87-4.6.43-.77,2.4-5.07Z"/><path class="cls-1" d="M51.65,32.37v.53A1.93,1.93,0,0,0,52,34a2.68,2.68,0,0,0,2.41,1.09q3.66,0,8.46-5.63.85-1,1.44-1a.73.73,0,0,1,.58.32.72.72,0,0,1,.18.44q0,1.14-2.81,3.86a21.24,21.24,0,0,1-4.69,3.49A9.79,9.79,0,0,1,52.91,38a4.27,4.27,0,0,1-3.46-1.52,4.51,4.51,0,0,1-.85-2.88q0-5,4.66-9.69Q57,20,59.85,20a2.24,2.24,0,0,1,1.38.47A2,2,0,0,1,62,22.09a7.64,7.64,0,0,1-1.43,3.81A15.3,15.3,0,0,1,51.65,32.37Zm.64-2.28a12,12,0,0,0,3.23-1.58,13.18,13.18,0,0,0,3.25-3.58,2.48,2.48,0,0,0,.44-1.26.5.5,0,0,0-.56-.58,4.12,4.12,0,0,0-2.17,1.14A15.07,15.07,0,0,0,52.29,30.09Z"/><path class="cls-1" d="M79.28,18.54a4.68,4.68,0,0,1,2.72.65,2.23,2.23,0,0,1,.91,2,5.29,5.29,0,0,1-1.29,3.34A8.42,8.42,0,0,1,77.93,27a6.59,6.59,0,0,1-2.26.5q-1.23,0-1.23-1.08a1.22,1.22,0,0,1,.71-1.12c.11-.05.78-.22,2-.49a4.43,4.43,0,0,0,2-1,1.92,1.92,0,0,0,.79-1.46,1.13,1.13,0,0,0-.35-.91,1.58,1.58,0,0,0-1-.3,6.84,6.84,0,0,0-3.75,1.38,4.43,4.43,0,0,0-2.38,3.69A7.28,7.28,0,0,0,74,29.94a7.93,7.93,0,0,1,1.72,4.22,4.56,4.56,0,0,1-2.28,4,5.72,5.72,0,0,1-3.19.91,5,5,0,0,1-4.28-2,5.66,5.66,0,0,1-1-3.4,6.22,6.22,0,0,1,1.17-3.84,2.08,2.08,0,0,1,1.59-1c.48,0,.73.19.73.58a1.76,1.76,0,0,1-.26.71,6.16,6.16,0,0,0-.68,3,3.26,3.26,0,0,0,1,2.43,2.93,2.93,0,0,0,2.08.88,2.2,2.2,0,0,0,1.78-.77A2.43,2.43,0,0,0,72.86,34a6.12,6.12,0,0,0-1.4-3.19,8.69,8.69,0,0,1-1.94-4.89c0-1.95,1.07-3.68,3.19-5.19A11.33,11.33,0,0,1,79.28,18.54Z"/><path class="cls-1" d="M88.21,26a29.3,29.3,0,0,1,4.34-3.78c1.85-1.29,3.18-1.94,4-1.94a1.46,1.46,0,0,1,1,.41A1.45,1.45,0,0,1,98,21.8a5.14,5.14,0,0,1-1.26,2.46,35.2,35.2,0,0,0-3.69,5.86A9.11,9.11,0,0,0,92,33.22a.69.69,0,0,0,.76.79q1.59,0,5.34-5.62c.5-.76,1-1.14,1.37-1.14s.62.23.62.7c0,.76-.74,2.22-2.23,4.36a16.92,16.92,0,0,1-4,4.31,5,5,0,0,1-2.7,1,1.88,1.88,0,0,1-1.81-1.09,3.09,3.09,0,0,1-.35-1.49,12.62,12.62,0,0,1,1.84-5.95q.43-.8,2.64-4.51-6,3-10.11,13-.37,1.14-1.17,1.14a1.21,1.21,0,0,1-.91-.38,1.52,1.52,0,0,1-.35-1q0-1,1.87-5.48,3.49-8.37,6.51-14.18T96,5.6a12.44,12.44,0,0,1,1.37-2.06A1.47,1.47,0,0,1,98.38,3a1.1,1.1,0,0,1,.91.55,1.63,1.63,0,0,1,.29.94,4.33,4.33,0,0,1-.94,2.2q-3.17,4.89-6.3,10.75A69.6,69.6,0,0,0,88.21,26Z"/><path class="cls-1" d="M108.46,33.16A22.46,22.46,0,0,1,106.55,36q-1.85,2.28-3.66,2.28a2.74,2.74,0,0,1-2.46-1.49,4.54,4.54,0,0,1-.56-2.29,15.82,15.82,0,0,1,2-7.18,19.09,19.09,0,0,1,5.51-6.71,7.06,7.06,0,0,1,4.07-1.52,2.87,2.87,0,0,1,2,.76,2.08,2.08,0,0,1,.71,1.53,4.9,4.9,0,0,1-.5,1.78,2,2,0,0,1,.44,1.09,4.88,4.88,0,0,1-.82,2,22.78,22.78,0,0,0-1.7,3.81,12.54,12.54,0,0,0-.91,4,2.9,2.9,0,0,0,.73,2,5.72,5.72,0,0,0,1.21.68,1.25,1.25,0,0,1,.73,1.23,1.13,1.13,0,0,1-.41.9,1.52,1.52,0,0,1-1,.39A3.41,3.41,0,0,1,109.28,38a4.35,4.35,0,0,1-.94-2.87C108.34,34.71,108.38,34.06,108.46,33.16Zm3.66-9.63a3.12,3.12,0,0,0-.76-1,1.48,1.48,0,0,0-.88-.3c-1.49,0-3.1,1.29-4.84,3.89q-2.86,4.31-2.87,7.3a1.89,1.89,0,0,0,.28,1.11,1,1,0,0,0,.84.38c.93,0,2-1,3.28-3a50.37,50.37,0,0,0,2.61-4.83,24.14,24.14,0,0,1,1.49-2.75A4.18,4.18,0,0,1,112.12,23.53Z"/><path class="cls-1" d="M118.12,35.86a1.3,1.3,0,0,1,1.09.59,1.54,1.54,0,0,1,.29,1,6.44,6.44,0,0,1-.76,2.9,2.36,2.36,0,0,1-2.08,1.61c-.9,0-1.35-.5-1.35-1.52a6,6,0,0,1,.94-3.11C116.82,36.34,117.44,35.86,118.12,35.86Z"/></g></g></svg>