<svg xmlns="http://www.w3.org/2000/svg" viewBox="0 0 212.13 227.55"><defs><style>.cls-1{fill:none;}.cls-1,.cls-2{stroke:#231f20;stroke-linecap:round;stroke-linejoin:round;stroke-width:8px;}.cls-2{fill:#231f20;}</style></defs><g id="Layer_2" data-name="Layer 2"><g id="Layer_1-2" data-name="Layer 1"><rect class="cls-1" x="76.71" y="71.69" width="50.94" height="129.91"/><polygon class="cls-1" points="124.43 204.29 113.3 223.55 91.06 223.55 79.94 204.29 81.49 201.6 122.88 201.6 124.43 204.29"/><rect class="cls-1" x="156.1" y="159.26" width="42.52" height="64.13" transform="translate(-1.42 1.33) rotate(-0.43)"/><line class="cls-1" x1="177.36" y1="71.69" x2="177.36" y2="159.25"/><path class="cls-2" d="M177.36,71.69l-30.77-53.3q30.76-28.79,61.54,0Z"/><rect class="cls-1" x="4" y="164.56" width="51.13" height="58.99"/><path class="cls-1" d="M18.51,59.16h0A27.42,27.42,0,0,1,45.93,86.59v78a0,0,0,0,1,0,0H13.2a0,0,0,0,1,0,0V64.48a5.32,5.32,0,0,1,5.32-5.32Z"/></g></g></svg>